<svg width="50" height="17" viewBox="0 0 50 17" fill="none" xmlns="http://www.w3.org/2000/svg">
<path d="M6 10.9688C5.78125 10.9688 5.56771 11.0052 5.35938 11.0781C5.15104 11.151 4.94271 11.2344 4.73438 11.3281C4.52604 11.4219 4.3125 11.5052 4.09375 11.5781C3.88542 11.651 3.66146 11.6875 3.42188 11.6875C2.96354 11.6875 2.55208 11.6146 2.1875 11.4688C1.82292 11.3125 1.51042 11.099 1.25 10.8281C1 10.5573 0.802083 10.2396 0.65625 9.875C0.520833 9.5 0.453125 9.09375 0.453125 8.65625C0.453125 8.08333 0.5625 7.60417 0.78125 7.21875C1 6.82292 1.28646 6.50521 1.64062 6.26562C2.00521 6.02604 2.41667 5.85938 2.875 5.76562C3.33333 5.66146 3.80208 5.60938 4.28125 5.60938C4.8125 5.63021 5.29167 5.80729 5.71875 6.14062C6.14583 6.46354 6.52604 6.88542 6.85938 7.40625C7.20312 7.92708 7.5 8.51562 7.75 9.17188C8 9.81771 8.20312 10.4792 8.35938 11.1562C8.52604 11.8333 8.64583 12.4896 8.71875 13.125C8.79167 13.7604 8.82292 14.3229 8.8125 14.8125C8.80208 15.3125 8.75521 15.7083 8.67188 16C8.59896 16.2917 8.48438 16.4219 8.32812 16.3906C8.04688 16.349 7.83333 16.224 7.6875 16.0156C7.55208 15.8177 7.44271 15.5677 7.35938 15.2656C7.28646 14.9635 7.23958 14.6302 7.21875 14.2656C7.20833 13.9115 7.19792 13.5521 7.1875 13.1875C7.17708 12.8333 7.15625 12.4948 7.125 12.1719C7.10417 11.8385 7.05729 11.5677 6.98438 11.3594C6.91146 11.1406 6.79688 10.9896 6.64062 10.9062C6.48438 10.8229 6.27083 10.8438 6 10.9688ZM1.78125 8.8125C1.78125 8.98958 1.82292 9.16667 1.90625 9.34375C2 9.52083 2.11979 9.68229 2.26562 9.82812C2.41146 9.97396 2.57292 10.0938 2.75 10.1875C2.92708 10.2812 3.10417 10.3281 3.28125 10.3281C3.45833 10.3281 3.6875 10.2917 3.96875 10.2188C4.25 10.1354 4.52604 10.0208 4.79688 9.875C5.06771 9.71875 5.30208 9.54167 5.5 9.34375C5.69792 9.13542 5.79688 8.90625 5.79688 8.65625C5.79688 8.30208 5.77604 7.99479 5.73438 7.73438C5.69271 7.47396 5.61979 7.26042 5.51562 7.09375C5.41146 6.92708 5.26042 6.80729 5.0625 6.73438C4.86458 6.65104 4.60417 6.60938 4.28125 6.60938C4.02083 6.60938 3.74479 6.67188 3.45312 6.79688C3.16146 6.91146 2.89062 7.07292 2.64062 7.28125C2.40104 7.48958 2.19792 7.72917 2.03125 8C1.86458 8.26042 1.78125 8.53125 1.78125 8.8125ZM9.43875 6.968C9.43875 6.072 9.60408 5.24 9.93475 4.472C10.2654 3.69333 10.7241 3.016 11.3108 2.44C11.8974 1.864 12.5961 1.416 13.4068 1.096C14.2281 0.765333 15.1294 0.599999 16.1108 0.599999C17.0814 0.599999 17.9774 0.765333 18.7988 1.096C19.6201 1.416 20.3241 1.864 20.9108 2.44C21.5081 3.016 21.9721 3.69333 22.3028 4.472C22.6334 5.24 22.7988 6.072 22.7988 6.968C22.7988 7.8 22.6601 8.57333 22.3828 9.288C22.1161 10.0027 21.7268 10.6373 21.2148 11.192L23.2628 13.336L20.3828 13.784L19.2788 12.648C18.8094 12.8613 18.3081 13.0267 17.7748 13.144C17.2521 13.272 16.6974 13.336 16.1108 13.336C15.1294 13.336 14.2281 13.176 13.4068 12.856C12.5961 12.5253 11.8974 12.072 11.3108 11.496C10.7241 10.92 10.2654 10.248 9.93475 9.48C9.60408 8.70133 9.43875 7.864 9.43875 6.968ZM12.7188 6.968C12.7188 7.448 12.8094 7.89067 12.9908 8.296C13.1721 8.70133 13.4174 9.05333 13.7268 9.352C14.0361 9.65067 14.3934 9.88533 14.7988 10.056C15.2148 10.216 15.6521 10.296 16.1108 10.296C16.3881 10.296 16.6654 10.264 16.9427 10.2L15.1508 8.312L18.1108 7.944L18.9428 8.824C19.3268 8.29067 19.5188 7.672 19.5188 6.968C19.5188 6.488 19.4281 6.04533 19.2468 5.64C19.0654 5.23467 18.8148 4.88267 18.4948 4.584C18.1854 4.28533 17.8228 4.056 17.4068 3.896C17.0014 3.72533 16.5694 3.64 16.1108 3.64C15.6521 3.64 15.2148 3.72533 14.7988 3.896C14.3934 4.056 14.0361 4.28533 13.7268 4.584C13.4174 4.88267 13.1721 5.23467 12.9908 5.64C12.8094 6.04533 12.7188 6.488 12.7188 6.968ZM24.0276 9.208C24.0276 8.68533 24.1396 8.17333 24.3636 7.672C24.5983 7.16 24.9236 6.69067 25.3396 6.264C25.7556 5.83733 26.2996 5.49067 26.9716 5.224C27.6543 4.95733 28.4063 4.824 29.2276 4.824C29.4836 4.824 29.681 4.82933 29.8196 4.84L29.9476 4.44C30.2676 4.376 30.577 4.344 30.8756 4.344C31.4623 4.344 32.033 4.52 32.5876 4.872C32.6516 5.384 32.6836 5.77333 32.6836 6.04C32.6836 6.82933 32.529 7.288 32.2196 7.416C31.921 7.53333 31.633 7.592 31.3556 7.592C30.8436 7.592 30.2143 7.49067 29.4676 7.288L29.5636 6.664C29.3503 6.64267 29.1796 6.632 29.0516 6.632C28.273 6.632 27.5956 6.85067 27.0196 7.288C26.4543 7.71467 26.1716 8.33333 26.1716 9.144C26.1716 9.82667 26.369 10.3333 26.7636 10.664C27.169 10.9947 27.649 11.16 28.2036 11.16C28.5343 11.16 28.9663 11.0907 29.4996 10.952L29.4516 10.376C29.985 10.024 30.6356 9.848 31.4036 9.848C31.617 9.848 31.8676 9.87467 32.1556 9.928C32.5503 10.4187 32.7476 10.984 32.7476 11.624C32.7476 11.8907 32.7103 12.312 32.6356 12.888C32.1876 13.2507 31.569 13.432 30.7796 13.432C30.5663 13.432 30.321 13.4213 30.0436 13.4L29.8676 13.144C29.5583 13.176 29.2596 13.192 28.9716 13.192C27.521 13.192 26.3316 12.8027 25.4036 12.024C24.4863 11.2347 24.0276 10.296 24.0276 9.208ZM41.6328 3.21094L38.6953 13.0234H36.8984L33.9453 2.33594H35.4766L37.8828 11.5547L40.7422 2.33594H42.5312L45.3906 11.5547L47.7891 2.33594H49.3281L46.3672 13.0234H44.5703L41.6328 3.21094Z" fill="black"/>
</svg>
