<svg width="112" height="51" viewBox="0 0 112 51" fill="none" xmlns="http://www.w3.org/2000/svg">
<path d="M54.777 28.716H56.514V32.609H57.769L60.021 28.716H61.92L59.217 33.285V33.317L62.081 38.303H60.118L57.801 34.12H56.547V38.303H54.809V28.715H54.777V28.716ZM65.974 31.258C68.064 31.258 69.77 32.77 69.77 34.861C69.77 36.985 68.097 38.465 66.006 38.465C63.914 38.465 62.241 36.985 62.241 34.861C62.209 32.738 63.882 31.258 65.974 31.258ZM71.121 31.418H72.762V36.824H74.918V31.419H76.558V36.824H78.714V31.419H80.355V38.303H71.185V31.418H71.121ZM85.214 31.258C87.176 31.258 88.27 32.706 88.27 34.508C88.2646 34.7342 88.2432 34.9598 88.206 35.183H83.476C83.573 36.373 84.506 37.017 85.536 37.017C86.243 37.017 86.951 36.695 87.498 36.277L88.174 37.5C87.466 38.11 86.404 38.497 85.407 38.497C83.122 38.497 81.707 36.856 81.707 34.893C81.707 32.738 83.154 31.258 85.214 31.258ZM89.074 36.856C89.911 36.727 90.522 36.02 90.522 33.574V31.419H95.542V38.303H93.836V32.801H92.163V33.573C92.163 36.565 91.359 38.303 89.074 38.367V36.855V36.856ZM100.432 31.258C102.394 31.258 103.488 32.706 103.488 34.508C103.483 34.7342 103.461 34.9598 103.424 35.183H98.694C98.791 36.373 99.724 37.017 100.754 37.017C101.461 37.017 102.169 36.695 102.716 36.277L103.392 37.5C102.684 38.11 101.622 38.497 100.625 38.497C98.341 38.497 96.925 36.856 96.925 34.893C96.925 32.738 98.373 31.258 100.432 31.258ZM104.904 31.418H106.609V34.057H107.446L109.119 31.419H111.017L108.829 34.7V34.733L111.274 38.303H109.28L107.478 35.505H106.578V38.303H104.871V31.418H104.903H104.904ZM65.974 36.985C67.1 36.985 68.033 36.116 68.033 34.829C68.033 33.574 67.1 32.673 65.973 32.673C64.848 32.673 63.947 33.543 63.947 34.829C63.947 36.116 64.847 36.985 65.974 36.985ZM86.533 33.993C86.533 33.092 85.921 32.545 85.149 32.545C84.281 32.545 83.637 33.124 83.476 33.993H86.533ZM101.751 33.993C101.751 33.092 101.14 32.545 100.368 32.545C99.498 32.545 98.855 33.124 98.694 33.993H101.751Z" fill="#2D3540"/>
<path d="M78.811 7.835V24.083C78.8124 24.1425 78.8017 24.2016 78.7795 24.2568C78.7574 24.312 78.7243 24.3622 78.6822 24.4042C78.6402 24.4463 78.59 24.4794 78.5348 24.5015C78.4796 24.5237 78.4205 24.5344 78.361 24.533H75.047C74.9875 24.5344 74.9284 24.5237 74.8732 24.5015C74.818 24.4794 74.7678 24.4463 74.7258 24.4042C74.6837 24.3622 74.6506 24.312 74.6285 24.2568C74.6063 24.2016 74.5956 24.1425 74.597 24.083V7.835C74.5956 7.77553 74.6063 7.7164 74.6285 7.66119C74.6506 7.60597 74.6837 7.55582 74.7258 7.51376C74.7678 7.47169 74.818 7.4386 74.8732 7.41647C74.9284 7.39434 74.9875 7.38363 75.047 7.385H78.361C78.4205 7.38363 78.4796 7.39434 78.5348 7.41647C78.59 7.4386 78.6402 7.47169 78.6822 7.51376C78.7243 7.55582 78.7574 7.60597 78.7795 7.66119C78.8017 7.7164 78.8124 7.77553 78.811 7.835ZM104.679 7.385C104.808 7.385 104.969 7.449 105.129 7.578C105.226 7.674 105.226 7.835 105.194 7.964L99.724 24.244C99.6908 24.3282 99.6334 24.4008 99.559 24.4524C99.4846 24.504 99.3965 24.5324 99.306 24.534H96.346C96.153 24.534 95.992 24.437 95.928 24.244L92.741 14.753L89.556 24.243C89.5228 24.3272 89.4654 24.3998 89.391 24.4514C89.3166 24.503 89.2285 24.5314 89.138 24.533H86.178C85.985 24.533 85.824 24.437 85.76 24.243L80.29 7.963C80.258 7.835 80.258 7.706 80.354 7.578C80.419 7.449 80.58 7.385 80.708 7.385H84.408C84.601 7.385 84.762 7.513 84.827 7.706L87.754 17.326L90.972 7.706C91.0052 7.62175 91.0626 7.54924 91.137 7.49762C91.2114 7.44601 91.2995 7.4176 91.39 7.416H93.996C94.189 7.416 94.35 7.513 94.414 7.706L97.632 17.326L100.56 7.706C100.586 7.61487 100.641 7.53453 100.716 7.47677C100.791 7.41901 100.883 7.38685 100.978 7.385H104.678H104.679ZM110.277 7.385C110.502 7.385 110.695 7.578 110.727 7.835V24.083C110.728 24.1425 110.718 24.2016 110.696 24.2568C110.673 24.312 110.64 24.3622 110.598 24.4042C110.556 24.4463 110.506 24.4794 110.451 24.5015C110.396 24.5237 110.336 24.5344 110.277 24.533H106.963C106.904 24.5344 106.844 24.5237 106.789 24.5015C106.734 24.4794 106.684 24.4463 106.642 24.4042C106.6 24.3622 106.567 24.312 106.544 24.2568C106.522 24.2016 106.512 24.1425 106.513 24.083V7.835C106.512 7.77553 106.522 7.7164 106.544 7.66119C106.567 7.60597 106.6 7.55582 106.642 7.51376C106.684 7.47169 106.734 7.4386 106.789 7.41647C106.844 7.39434 106.904 7.38363 106.963 7.385H110.277ZM72.666 23.955C72.859 24.18 72.698 24.501 72.408 24.501H68.354C68.2742 24.5032 68.1949 24.4869 68.1224 24.4534C68.0499 24.4199 67.9861 24.3702 67.936 24.308L67.261 23.472C65.845 24.372 64.171 24.92 62.402 24.92C57.448 24.92 53.426 20.898 53.426 15.943C53.426 10.988 57.448 6.966 62.402 6.966C67.357 6.966 71.379 10.988 71.379 15.943C71.379 17.713 70.864 19.386 69.963 20.801L72.666 23.954V23.955ZM38.786 31.837C39.623 32.159 39.945 33.413 40.009 33.96C40.138 34.958 39.849 35.344 39.527 35.344C39.205 35.344 38.754 34.958 38.272 34.186C37.789 33.413 37.596 32.545 37.854 32.094C38.014 31.804 38.368 31.676 38.787 31.837H38.786ZM33.896 35.473C34.411 35.473 34.99 35.698 35.505 36.148C36.502 36.985 36.792 37.95 36.277 38.658C35.987 39.012 35.505 39.237 34.958 39.237C34.411 39.237 33.832 39.044 33.446 38.69C32.545 37.918 32.288 36.63 32.866 35.923C33.092 35.633 33.446 35.473 33.896 35.473ZM22.636 44.771C10.409 44.771 0.5 34.861 0.5 22.635C0.5 10.409 10.41 0.5 22.635 0.5C34.861 0.5 44.771 10.41 44.771 22.635C44.771 26.785 43.613 30.679 41.651 33.993C41.586 34.089 41.425 34.057 41.393 33.928C40.621 28.491 37.307 25.498 32.481 24.598C32.062 24.533 31.998 24.276 32.545 24.212C34.025 24.083 36.116 24.115 37.21 24.308C37.274 23.761 37.307 23.182 37.307 22.603C37.307 14.527 30.743 7.963 22.667 7.963C14.592 7.963 8.028 14.527 8.028 22.603C8.028 30.679 14.592 37.243 22.668 37.243H23.343C23.1137 35.9367 23.0165 34.6107 23.053 33.285C23.086 32.384 23.279 32.255 23.665 32.963C25.692 36.47 28.588 39.623 34.25 40.878C38.883 41.908 43.516 43.098 48.503 49.436C48.953 49.983 48.278 50.562 47.763 50.112C42.68 45.607 38.047 44.127 33.832 44.127C29.102 44.16 25.885 44.771 22.635 44.771H22.636ZM64.622 20.351L62.852 18.195C62.66 17.97 62.821 17.616 63.11 17.616H66.842C67.035 17.101 67.132 16.522 67.132 15.943C67.132 13.273 65.137 10.956 62.402 10.956C59.668 10.956 57.672 13.273 57.672 15.943C57.672 18.613 59.668 20.898 62.402 20.898C63.174 20.93 63.947 20.705 64.622 20.351Z" fill="#FF8C00"/>
</svg>
