<svg width="114" height="39" viewBox="0 0 114 39" fill="none" xmlns="http://www.w3.org/2000/svg">
<path fill-rule="evenodd" clip-rule="evenodd" d="M81.8043 9.5765C84.3861 9.5765 86.4788 7.494 86.4788 4.926C86.4788 2.3565 84.3861 0.272003 81.8043 0.272003C79.2255 0.272003 77.1338 2.3565 77.1338 4.926C77.1338 7.494 79.2255 9.5765 81.8043 9.5765ZM46.0038 12.088C45.7928 12.6155 44.2747 16.885 40.6031 21.31V2.3895L30.8202 4.3145V38.61H40.6031V28.009C43.4365 32.24 44.8356 38.61 44.8356 38.61H56.5535C55.3945 33.8125 50.3242 24.9665 50.3242 24.9665C54.8747 19.2225 56.8734 13.102 57.1913 12.088H46.0038ZM71.7226 11.73C62.9601 12.01 58.5121 15.924 58.5121 23.7045V38.61H68.0716V26.455C68.0716 21.796 68.6842 19.799 74.2371 19.6085V11.8665C73.3025 11.669 71.7226 11.73 71.7226 11.73ZM14.4132 15.8645C13.215 15.786 10.4408 15.6075 10.4408 13.121C10.4408 10.1205 14.4348 10.1205 15.9329 10.1205C18.5669 10.1205 21.9784 10.8955 24.4146 11.621C24.4146 11.621 25.7735 12.098 26.9301 12.5865L27.0376 12.6155V4.398L26.8899 4.3545C24.0148 3.353 20.6717 2.3895 14.4735 2.3895C3.78661 2.3895 0 8.588 0 13.898C0 16.959 1.31778 24.163 13.557 24.994C14.5945 25.0575 17.3481 25.2155 17.3481 27.785C17.3481 29.9065 15.0937 31.1575 11.3021 31.1575C7.14685 31.1575 3.11617 30.1025 0.66793 29.102V37.5655C4.333 38.522 8.46463 39 13.3069 39C23.7562 39 28.4362 33.1355 28.4362 27.323C28.4362 20.7325 23.1993 16.4505 14.4132 15.8645ZM77.0655 38.61H86.5476V12.118H77.0655V38.61ZM104.402 4.0785V38.61H113.885V2.3895L104.402 4.0785ZM90.5642 4.0785L100.039 2.3895V38.61H90.5642V4.0785Z" fill="url(#paint0_linear)"/>
<defs>
<linearGradient id="paint0_linear" x1="30.7991" y1="0.272003" x2="39.284" y2="48.0537" gradientUnits="userSpaceOnUse">
<stop stop-color="#6B195F"/>
<stop offset="1" stop-color="#4C255B"/>
</linearGradient>
</defs>
</svg>
