<svg width="116" height="33" viewBox="0 0 116 33" fill="none" xmlns="http://www.w3.org/2000/svg">
<path fill-rule="evenodd" clip-rule="evenodd" d="M11.4169 5.76268C9.6976 6.08474 8.08696 7.27337 7.61399 8.99806C7.22624 10.4706 7.31146 12.1021 7.91652 13.5026C8.57271 14.9709 10.2174 15.6553 11.7407 15.7909C14.4337 16.0494 17.3056 15.5663 19.5575 14.0069C20.8123 13.1403 21.8328 11.6677 21.5751 10.0829C21.3279 8.32005 19.8153 7.04455 18.2387 6.40255C16.0933 5.54021 13.6837 5.36012 11.4169 5.76268ZM7.24966 1.14589C10.9311 -0.208011 15.0558 -0.360563 18.8374 0.679757C21.7838 1.52091 24.6025 3.19475 26.3367 5.76271C27.6959 7.74588 28.1902 10.3181 27.5148 12.636C26.8075 15.1807 24.8965 17.2401 22.6701 18.594C18.8693 20.8887 14.1503 21.4374 9.84672 20.4734C9.51436 20.4119 9.17988 20.3632 8.84326 20.3314C8.741 22.3358 9.82541 24.3086 11.5383 25.3529C12.35 25.9292 13.3791 26.0521 14.2036 26.6032C13.2917 26.8615 12.3415 26.7026 11.4254 26.5628C8.23607 25.997 5.37057 24.1052 3.39987 21.5751C0.429978 17.8164 -0.654438 12.7081 0.385238 8.05522C1.32265 4.78383 4.10293 2.30062 7.24966 1.14589Z" fill="#419945"/>
<path fill-rule="evenodd" clip-rule="evenodd" d="M43.6085 9.18029C43.6085 11.4304 43.6043 13.6827 43.6128 15.935C44.5395 15.99 45.5771 16.0536 46.3611 15.4646C47.2431 14.8184 47.4583 13.6509 47.4753 12.6297C47.486 11.5766 47.3752 10.3626 46.523 9.62524C45.7113 8.96206 44.5843 9.01503 43.6085 9.18029ZM37.7774 6.9471C40.3233 5.93644 43.1079 5.62074 45.8328 5.77965C47.5073 5.90254 49.2202 6.29663 50.6114 7.27127C54.0394 9.61676 54.0053 15.4392 50.5795 17.7719C48.5619 19.1576 45.9968 19.4373 43.6064 19.2934C43.6107 21.7256 43.6064 24.1581 43.6085 26.5903C41.6655 26.5903 39.7204 26.5903 37.7753 26.5903C37.7753 20.0411 37.7753 13.4941 37.7774 6.9471Z" fill="#2D2E2C"/>
<path fill-rule="evenodd" clip-rule="evenodd" d="M70.3895 11.0021C72.4218 11 74.4541 11 76.4864 11.0021C77.1456 14.7064 78.1092 18.3653 78.5102 22.1109C78.6866 20.233 79.201 18.4149 79.6146 16.5803C80.0513 14.7209 80.4816 12.8594 80.9162 11C82.7407 11.0021 84.5651 10.9979 86.3895 11.0021C83.9206 18.336 81.4348 25.6637 78.9637 32.9976C76.9986 33.0018 75.0335 32.9997 73.0705 32.9976C73.9586 30.9037 74.8446 28.81 75.739 26.7181C73.9649 21.4758 72.1699 16.2421 70.3895 11.0021Z" fill="#2D2E2C"/>
<path fill-rule="evenodd" clip-rule="evenodd" d="M87.9105 11.0014C91.724 11.0077 95.5354 10.9887 99.349 11.0119C97.85 14.8722 96.3938 18.7473 94.9098 22.6141C94.8073 22.8589 94.7155 23.108 94.6258 23.3593C96.2144 23.3509 97.8009 23.3572 99.3895 23.3551C99.3895 24.5694 99.3874 25.7836 99.3895 27C95.3881 27 91.3888 27 87.3895 27C89.0144 22.8821 90.6351 18.7642 92.2579 14.6463C90.808 14.6441 89.3603 14.6463 87.9127 14.6463C87.9105 13.432 87.9105 12.2156 87.9105 11.0014Z" fill="#2D2E2C"/>
<path fill-rule="evenodd" clip-rule="evenodd" d="M59.9111 20.2763C59.5041 21.2149 59.5276 22.4883 60.3073 23.2341C61.1425 23.9397 62.3334 23.8613 63.3411 23.6494C63.3433 21.9798 63.3411 20.3081 63.3411 18.6364C62.0927 18.8186 60.5651 19.0474 59.9111 20.2763ZM55.2474 11.4325C57.8743 10.4706 60.7185 9.93245 63.5179 10.2736C65.071 10.4621 66.6753 11.0829 67.6191 12.3818C68.4841 13.5471 68.7248 15.0366 68.7227 16.4541C68.7206 19.5517 68.7227 22.6515 68.7206 25.7491C66.4963 26.7301 64.0271 26.957 61.6218 26.9505C59.7555 26.906 57.7763 26.6962 56.1933 25.6241C53.7433 23.9821 53.641 19.8526 56.0676 18.1385C58.1747 16.632 60.8548 16.3354 63.3624 16.0578C63.4412 15.1976 63.2069 14.1382 62.2311 13.9136C60.286 13.439 58.2578 14.0344 56.4447 14.7463C56.0484 13.6403 55.6266 12.5449 55.2474 11.4325Z" fill="#2D2E2C"/>
<path fill-rule="evenodd" clip-rule="evenodd" d="M106.711 19.9903C106.104 20.9099 106.098 22.2892 106.837 23.1409C107.657 23.944 108.923 23.8677 109.967 23.6537C109.978 21.9799 109.975 20.3081 109.967 18.6343C108.812 18.8167 107.466 18.9903 106.711 19.9903ZM101.869 11.4368C104.511 10.4622 107.378 9.92826 110.193 10.28C111.741 10.4728 113.337 11.1084 114.268 12.4094C115.116 13.5704 115.344 15.0451 115.353 16.4477C115.355 19.5475 115.353 22.6473 115.353 25.7473C113.069 26.7514 110.529 26.974 108.058 26.9463C106.266 26.8891 104.372 26.6647 102.849 25.6454C100.356 24.0054 100.26 19.8124 102.736 18.1089C104.841 16.63 107.5 16.327 109.997 16.06C110.061 15.2167 109.847 14.1595 108.889 13.9243C106.935 13.4264 104.894 14.0366 103.07 14.7464C102.672 13.6425 102.257 12.545 101.869 11.4368Z" fill="#2D2E2C"/>
</svg>
