<svg width="131" height="46" viewBox="0 0 131 46" fill="none" xmlns="http://www.w3.org/2000/svg">
<path d="M33.4923 4.00754C33.6527 7.63216 36.7935 21.4639 36.7935 21.4639C37.9477 24.2654 38.9415 21.4639 38.9415 21.4639C42.7413 10.1007 34.976 3.51557 34.976 3.51557C32.9937 2.36038 33.4923 4.00754 33.4923 4.00754ZM78.5795 2.03269C78.5795 2.03269 82.3811 4.66727 78.5795 5.16098C78.5795 5.16098 64.3748 6.80727 53.8052 16.6911C53.8052 16.6911 37.9477 30.5202 32.0034 45.6723C32.0034 45.6723 30.0211 45.6723 30.6845 42.7092C31.3444 39.7452 35.3064 26.7339 52.977 10.7622C52.977 10.7622 69.9939 -4.71934 78.5795 2.03269Z" fill="#FF4600"/>
<path d="M6.31493 23.9567C6.9424 24.0887 7.50589 24.1533 8.33316 24.1533C11.573 24.1533 13.756 22.0754 13.756 19.4364C13.756 17.0622 12.0699 16.2059 9.88867 16.2059C8.92732 16.2059 8.19995 16.2723 7.73724 16.4025L6.31493 23.9567ZM4.49564 13.6657C5.85222 13.3345 7.87045 13.1379 9.8545 13.1379C11.9393 13.1379 14.1223 13.5652 15.577 14.7213C16.867 15.7104 17.6277 17.1592 17.6277 19.1411C17.6277 21.7783 16.3701 23.9244 14.7822 25.1766C12.9971 26.5948 10.4478 27.2877 7.80209 27.2877C7.00725 27.2877 6.31493 27.1872 5.71902 27.1226L4.09778 35.534H0.328613L4.49564 13.6657Z" fill="black"/>
<path d="M27.8463 22.2396C27.4502 22.1391 26.955 22.0754 26.2601 22.0754C22.7205 22.0754 19.9416 26.0679 19.9416 29.7292C19.9416 31.4087 20.57 32.7954 22.2578 32.7954C24.0754 32.7954 26.2601 30.5541 27.0208 26.4628L27.8463 22.2396ZM26.2925 35.534C26.2925 34.5754 26.424 33.2909 26.5581 31.9365H26.4915C24.9044 34.8743 22.753 35.8958 20.7023 35.8958C17.8253 35.8958 15.9376 33.6526 15.9376 30.4212C15.9376 24.9459 19.7751 19.107 27.2846 19.107C29.0372 19.107 30.9231 19.4364 32.1807 19.8322L30.4937 28.2105C30.0293 30.5847 29.7655 33.6203 29.8321 35.534H26.2925Z" fill="black"/>
<path d="M54.0726 29.1676C54.0726 31.3749 55.2303 32.9294 57.2152 32.9294C60.0931 32.9294 62.0123 28.9692 62.0123 25.7701C62.0123 24.1195 61.2499 22.0747 58.9364 22.0747C55.8595 22.0747 54.0726 26.166 54.0726 29.1676ZM65.9813 25.7387C65.9813 31.2123 62.1762 35.8951 56.6868 35.8951C52.6162 35.8951 50.1046 33.0919 50.1046 29.2646C50.1046 23.8241 53.9079 19.1072 59.3991 19.1072C63.7317 19.1072 65.9813 22.2076 65.9813 25.7387Z" fill="black"/>
<path d="M66.7059 35.5339L68.7907 24.4504C69.1868 22.5367 69.4182 20.8546 69.6171 19.4704H73.0594L72.6948 22.3401H72.7597C74.2468 20.1948 76.2992 19.1069 78.5488 19.1069C80.8632 19.1069 82.6501 20.4937 82.6501 23.5276C82.6501 24.252 82.5204 25.3731 82.3539 26.1657L80.5977 35.5339H76.7278L78.4463 26.4628C78.5488 25.8694 78.647 25.1765 78.647 24.5491C78.647 23.1964 78.151 22.2396 76.6296 22.2396C74.8769 22.2396 72.6265 24.3499 71.9324 28.1125L70.5434 35.5339H66.7059Z" fill="black"/>
<path d="M92.9007 21.9765C90.4846 21.9765 88.8985 24.12 88.4357 26.0677C92.4038 26.1001 94.9531 25.5723 94.9531 23.6271C94.9531 22.6048 94.1259 21.9765 92.9007 21.9765ZM96.5726 34.6094C94.9838 35.4334 92.8359 35.8956 90.8825 35.8956C86.421 35.8956 84.2696 33.1597 84.2696 29.2336C84.2696 24.3847 87.8398 19.1077 93.3976 19.1077C96.5726 19.1077 98.5908 20.9209 98.5908 23.6271C98.5908 27.749 94.2591 29.0676 88.0405 28.9365C87.973 29.4966 88.1054 30.5845 88.4699 31.2119C89.0991 32.3016 90.2533 32.8617 91.7772 32.8617C93.5983 32.8617 95.0513 32.3995 96.2124 31.8061L96.5726 34.6094Z" fill="black"/>
<path d="M107.882 21.9765C105.469 21.9765 103.88 24.12 103.417 26.0677C107.386 26.1001 109.935 25.5723 109.935 23.6271C109.935 22.6048 109.108 21.9765 107.882 21.9765ZM111.554 34.6094C109.968 35.4334 107.818 35.8956 105.868 35.8956C101.403 35.8956 99.2513 33.1597 99.2513 29.2336C99.2513 24.3847 102.822 19.1077 108.379 19.1077C111.554 19.1077 113.576 20.9209 113.576 23.6271C113.576 27.749 109.241 29.0676 103.022 28.9365C102.954 29.4966 103.087 30.5845 103.452 31.2119C104.081 32.3016 105.238 32.8617 106.759 32.8617C108.58 32.8617 110.033 32.3995 111.194 31.8061L111.554 34.6094Z" fill="black"/>
<path d="M113.804 35.5339L115.689 25.6379C116.119 23.3624 116.35 20.8886 116.513 19.4704H119.855C119.756 20.5583 119.658 21.6795 119.492 22.8355H119.59C120.686 20.6903 122.435 19.1069 124.62 19.1069C124.92 19.1069 125.216 19.141 125.482 19.141L124.719 22.9011C124.521 22.867 124.256 22.867 123.991 22.867C121.244 22.867 119.492 25.6379 118.865 29.0676L117.64 35.5339H113.804Z" fill="black"/>
<path d="M128.408 20.9398H128.69C128.979 20.9398 129.171 20.779 129.171 20.5361C129.171 20.2625 128.97 20.1428 128.681 20.1428C128.547 20.1428 128.453 20.1524 128.408 20.1629V20.9398ZM128.132 19.9707C128.272 19.9453 128.473 19.927 128.66 19.927C128.952 19.927 129.147 19.9864 129.276 20.1018C129.382 20.1953 129.443 20.3412 129.443 20.509C129.443 20.7851 129.269 20.9721 129.044 21.0464V21.0568C129.207 21.1128 129.303 21.2657 129.357 21.4859C129.426 21.7795 129.476 21.9866 129.521 22.0696H129.235C129.201 22.0049 129.153 21.8258 129.099 21.561C129.034 21.2674 128.916 21.1591 128.667 21.1486H128.408V22.0696H128.132V19.9707Z" fill="black"/>
<path d="M128.765 19.1074C127.714 19.1074 126.859 19.9594 126.859 21.008C126.859 22.0565 127.714 22.9094 128.765 22.9094C129.817 22.9094 130.671 22.0565 130.671 21.008C130.671 19.9594 129.817 19.1074 128.765 19.1074ZM128.765 19.401C129.654 19.401 130.375 20.1184 130.375 21.008C130.375 21.8966 129.654 22.6167 128.765 22.6167C127.874 22.6167 127.152 21.8966 127.152 21.008C127.152 20.1184 127.874 19.401 128.765 19.401Z" fill="black"/>
</svg>
